<?xml version="1.0" encoding="UTF-8" standalone="no"?>
<!-- Created with Inkscape (http://www.inkscape.org/) -->

<svg
   xmlns:dc="http://purl.org/dc/elements/1.1/"
   xmlns:cc="http://creativecommons.org/ns#"
   xmlns:rdf="http://www.w3.org/1999/02/22-rdf-syntax-ns#"
   xmlns:svg="http://www.w3.org/2000/svg"
   xmlns="http://www.w3.org/2000/svg"
   xmlns:sodipodi="http://sodipodi.sourceforge.net/DTD/sodipodi-0.dtd"
   xmlns:inkscape="http://www.inkscape.org/namespaces/inkscape"
   id="svg3374"
   version="1.1"
   inkscape:version="0.91 r13725"
   xml:space="preserve"
   width="67.183746"
   height="67.183746"
   viewBox="0 0 67.183746 67.183746"
   sodipodi:docname="Add.svg"><metadata
     id="metadata3380"><rdf:RDF><cc:Work
         rdf:about=""><dc:format>image/svg+xml</dc:format><dc:type
           rdf:resource="http://purl.org/dc/dcmitype/StillImage" /><dc:title></dc:title></cc:Work></rdf:RDF></metadata><defs
     id="defs3378" /><sodipodi:namedview
     pagecolor="#ffffff"
     bordercolor="#666666"
     borderopacity="1"
     objecttolerance="10"
     gridtolerance="10"
     guidetolerance="10"
     inkscape:pageopacity="0"
     inkscape:pageshadow="2"
     inkscape:window-width="648"
     inkscape:window-height="853"
     id="namedview3376"
     showgrid="false"
     inkscape:zoom="0.5218448"
     inkscape:cx="305.39627"
     inkscape:cy="436.71196"
     inkscape:window-x="39"
     inkscape:window-y="0"
     inkscape:window-maximized="0"
     inkscape:current-layer="g3382"
     fit-margin-top="0"
     fit-margin-left="0"
     fit-margin-right="0"
     fit-margin-bottom="0" /><g
     id="g3382"
     inkscape:groupmode="layer"
     inkscape:label="Nivaha_Icons1"
     transform="matrix(1.25,0,0,-1.25,0,67.18375)"><path
       inkscape:connector-curvature="0"
       id="path3580"
       style="fill:none;stroke:#8e8e8e;stroke-width:1;stroke-linecap:butt;stroke-linejoin:miter;stroke-miterlimit:10;stroke-dasharray:none;stroke-opacity:1"
       d="m 53.247,0.5 -52.747,0 0,52.747 52.747,0 0,-52.747 z" /><path
       inkscape:connector-curvature="0"
       id="path4756"
       style="fill:#666666;fill-opacity:1;fill-rule:nonzero;stroke:none"
       d="m 38.7288,29.7164 -8.717,0 0,8.717 c 0,0.516 -0.418,0.934 -0.934,0.934 l -3.97,0 c -0.515,0 -0.934,-0.418 -0.934,-0.934 l 0,-8.717 -8.872,0 c -0.516,0 -0.934,-0.418 -0.934,-0.934 l 0,0 0,-3.814 0,-0.155 c 0,-0.516 0.418,-0.934 0.934,-0.934 l 8.872,0 0,-8.873 c 0,-0.516 0.419,-0.934 0.934,-0.934 l 3.97,0 c 0.516,0 0.934,0.418 0.934,0.934 l 0,8.873 8.717,0 c 0.516,0 0.934,0.418 0.934,0.934 l 0,3.969 c 0,0.516 -0.418,0.934 -0.934,0.934" /></g></svg>